<svg width="19" height="19" viewBox="0 0 19 19" fill="none" xmlns="http://www.w3.org/2000/svg">
<path d="M9.5 19C14.7467 19 19 14.7467 19 9.5C19 4.25329 14.7467 0 9.5 0C4.25329 0 0 4.25329 0 9.5C0 14.7467 4.25329 19 9.5 19Z" fill="#F3BA2F"/>
<path d="M7.19388 8.55238L9.5 6.24625L11.8073 8.55356L13.1492 7.21169L9.5 3.5625L5.852 7.2105L7.19388 8.55238ZM3.5625 9.5L4.90438 8.15812L6.24625 9.5L4.90438 10.8419L3.5625 9.5ZM7.19388 10.4476L9.5 12.7537L11.8073 10.4464L13.1492 11.7877L9.5 15.4375L5.852 11.7895L5.85022 11.7877L7.19388 10.4476ZM12.7537 9.5L14.0956 8.15812L15.4375 9.5L14.0956 10.8419L12.7537 9.5ZM10.8609 9.49881H10.8621V9.5L9.5 10.8621L8.13972 9.50237L8.13734 9.5L8.13972 9.49822L8.37781 9.25953L8.49359 9.14375L9.5 8.13794L10.8615 9.49941L10.8609 9.49881Z" fill="white"/>
</svg>
