<svg width="19" height="19" viewBox="0 0 19 19" fill="none" xmlns="http://www.w3.org/2000/svg">
<path d="M9.5 19C14.7467 19 19 14.7467 19 9.5C19 4.25329 14.7467 0 9.5 0C4.25329 0 0 4.25329 0 9.5C0 14.7467 4.25329 19 9.5 19Z" fill="#F7931A"/>
<path d="M13.7685 8.32438C13.9549 7.07988 13.0067 6.41072 11.7111 5.96422L12.1315 4.27797L11.1055 4.02266L10.6958 5.66437C10.4262 5.59669 10.1495 5.53375 9.87345 5.47081L10.2861 3.81841L9.26011 3.5625L8.83973 5.24816C8.61648 5.19709 8.39679 5.14722 8.18423 5.09378L8.18542 5.08844L6.76992 4.73516L6.49679 5.83122C6.49679 5.83122 7.25858 6.00578 7.24254 6.01647C7.65817 6.12038 7.73298 6.39528 7.72051 6.61378L7.24195 8.53456C7.27045 8.54169 7.30726 8.55237 7.34883 8.56841L7.24017 8.54169L6.56923 11.2326C6.51817 11.3584 6.38933 11.5478 6.09839 11.476C6.10908 11.4908 5.35264 11.2902 5.35264 11.2902L4.8432 12.4646L6.17914 12.7977C6.42733 12.86 6.67076 12.9253 6.91004 12.9865L6.48551 14.6917L7.51092 14.9471L7.93129 13.2608C8.21154 13.3362 8.48348 13.4063 8.74948 13.4728L8.33029 15.1519L9.35629 15.4072L9.78083 13.7055C11.5312 14.0368 12.847 13.9032 13.4009 12.3203C13.8474 11.0461 13.379 10.3105 12.458 9.83131C13.129 9.67694 13.6337 9.23578 13.7685 8.32438ZM11.4231 11.6126C11.1067 12.8873 8.96026 12.198 8.26439 12.0252L8.82845 9.766C9.52433 9.93997 11.755 10.2838 11.4231 11.6126ZM11.7408 8.30597C11.4516 9.46556 9.66564 8.87597 9.08673 8.73169L9.59736 6.68325C10.1763 6.82753 12.0424 7.0965 11.7408 8.30597Z" fill="white"/>
</svg>
