<svg width="19" height="19" viewBox="0 0 19 19" fill="none" xmlns="http://www.w3.org/2000/svg">
<path d="M9.5 19C14.7467 19 19 14.7467 19 9.5C19 4.25329 14.7467 0 9.5 0C4.25329 0 0 4.25329 0 9.5C0 14.7467 4.25329 19 9.5 19Z" fill="#627EEA"/>
<path d="M9.79565 2.375V7.64156L14.247 9.63062L9.79565 2.375Z" fill="white" fill-opacity="0.602"/>
<path d="M9.79569 2.375L5.34375 9.63062L9.79569 7.64156V2.375Z" fill="white"/>
<path d="M9.79565 13.0435V16.622L14.25 10.4595L9.79565 13.0435Z" fill="white" fill-opacity="0.602"/>
<path d="M9.79569 16.622V13.0429L5.34375 10.4595L9.79569 16.622Z" fill="white"/>
<path d="M9.79565 12.2152L14.247 9.63064L9.79565 7.64276V12.2152Z" fill="white" fill-opacity="0.2"/>
<path d="M5.34375 9.63064L9.79569 12.2152V7.64276L5.34375 9.63064Z" fill="white" fill-opacity="0.602"/>
</svg>
