<svg width="19" height="19" viewBox="0 0 19 19" fill="none" xmlns="http://www.w3.org/2000/svg">
<path d="M9.5 19C14.7467 19 19 14.7467 19 9.5C19 4.25329 14.7467 0 9.5 0C4.25329 0 0 4.25329 0 9.5C0 14.7467 4.25329 19 9.5 19Z" fill="#26A17B"/>
<path fill-rule="evenodd" clip-rule="evenodd" d="M10.6412 10.3211V10.32C10.5758 10.3247 10.2392 10.3449 9.4881 10.3449C8.88841 10.3449 8.46626 10.3271 8.31782 10.32V10.3217C6.00932 10.2202 4.28626 9.81824 4.28626 9.3373C4.28626 8.85695 6.00932 8.45499 8.31782 8.35167V9.92155C8.46863 9.93224 8.90088 9.95777 9.49819 9.95777C10.2148 9.95777 10.5741 9.92808 10.6412 9.92214V8.35286C12.9449 8.45558 14.6638 8.85755 14.6638 9.3373C14.6638 9.81824 12.9449 10.219 10.6412 10.3211ZM10.6412 8.18958V6.78477H13.8557V4.64252H5.10326V6.78477H8.31782V8.18899C5.70532 8.30892 3.7406 8.82667 3.7406 9.44655C3.7406 10.0664 5.70532 10.5836 8.31782 10.7041V15.2059H10.6412V10.7029C13.2495 10.583 15.2095 10.0658 15.2095 9.44655C15.2095 8.82727 13.2495 8.31011 10.6412 8.18958Z" fill="white"/>
</svg>
